<svg width="148" height="44" viewBox="0 0 148 44" fill="none" xmlns="http://www.w3.org/2000/svg">
<path d="M22.1944 0C9.93704 0 0 9.84991 0 22.0001C0 34.1509 9.93704 44 22.1944 44C34.4531 44 44.3891 34.1509 44.3891 22.0001C44.3891 9.85069 34.4531 0.00105085 22.1942 0.00105085L22.1944 0V0ZM32.3726 31.7305C31.9751 32.3768 31.1217 32.5817 30.4697 32.185C25.2587 29.0298 18.6987 28.3152 10.973 30.0649C10.2286 30.233 9.48649 29.7707 9.31687 29.0324C9.14646 28.2942 9.61105 27.5586 10.3574 27.3905C18.8118 25.4758 26.0639 26.3002 31.9141 29.8442C32.5661 30.2409 32.7728 31.0842 32.3726 31.7305V31.7305ZM35.0892 25.7401C34.5883 26.5472 33.5229 26.802 32.7092 26.3055C26.7434 22.6706 17.6494 21.6179 10.593 23.7411C9.67784 24.0151 8.71128 23.5039 8.43353 22.5983C8.15789 21.6912 8.67391 20.7349 9.58747 20.4591C17.6478 18.0347 27.6684 19.2091 34.5194 23.3823C35.333 23.8788 35.5901 24.9349 35.0892 25.7404V25.7401ZM35.3224 19.5023C28.1693 15.2907 16.3675 14.9035 9.53791 16.9581C8.44121 17.2878 7.28144 16.6741 6.94909 15.587C6.61674 14.4994 7.23532 13.3506 8.33281 13.0201C16.1727 10.6609 29.2055 11.1167 37.4411 15.963C38.4296 16.5433 38.753 17.8062 38.1673 18.7827C37.5842 19.7605 36.3067 20.0828 35.3235 19.5023H35.3224ZM60.3837 20.3093C56.5513 19.4035 55.8702 18.7677 55.8702 17.4318C55.8702 16.1697 57.0682 15.3204 58.8518 15.3204C60.5798 15.3204 62.2919 15.9653 64.0888 17.2931C64.1418 17.3333 64.2107 17.3493 64.277 17.3388C64.3459 17.3288 64.4042 17.2923 64.4439 17.2374L66.3151 14.6229C66.3919 14.5152 66.3707 14.3667 66.2673 14.2845C64.1286 12.584 61.7221 11.7572 58.9075 11.7572C54.7703 11.7572 51.8789 14.2186 51.8789 17.7402C51.8789 21.5167 54.3728 22.8539 58.6822 23.8861C62.3476 24.7234 62.9677 25.4249 62.9677 26.6785C62.9677 28.0683 61.7168 28.9326 59.7026 28.9326C57.4657 28.9326 55.6396 28.1839 53.5989 26.4342C53.5486 26.3895 53.4796 26.3712 53.416 26.3738C53.3471 26.379 53.2862 26.4106 53.2438 26.4605L51.1447 28.9352C51.0573 29.0403 51.0679 29.1927 51.1686 29.282C53.5433 31.3837 56.4639 32.4924 59.6177 32.4924C64.0755 32.4924 66.9564 30.078 66.9564 26.3396C66.9644 23.1852 65.0588 21.4382 60.3916 20.3127L60.3837 20.3093V20.3093ZM77.0435 16.563C75.1114 16.563 73.5265 17.3175 72.2173 18.8636V17.1234C72.2173 16.986 72.106 16.8741 71.9681 16.8741H68.536C68.3982 16.8741 68.2869 16.986 68.2869 17.1234V36.4593C68.2869 36.596 68.3982 36.7089 68.536 36.7089H71.9681C72.106 36.7089 72.2173 36.596 72.2173 36.4593V30.3565C73.5265 31.8093 75.1114 32.5213 77.0435 32.5213C80.6346 32.5213 84.2709 29.7812 84.2709 24.5429C84.2762 19.3036 80.6399 16.5628 77.0461 16.5628L77.0435 16.563ZM80.2795 24.5429C80.2795 27.2092 78.6231 29.0718 76.2484 29.0718C73.9029 29.0718 72.1325 27.1251 72.1325 24.5429C72.1325 21.9605 73.9029 20.0143 76.2484 20.0143C78.5833 20.014 80.2795 21.9182 80.2795 24.5427V24.5429ZM93.5867 16.563C88.9619 16.563 85.3389 20.0928 85.3389 24.5999C85.3389 29.0587 88.938 32.5502 93.531 32.5502C98.1717 32.5502 101.805 29.0324 101.805 24.5429C101.805 20.0687 98.1955 16.5635 93.5867 16.5635V16.563V16.563ZM93.5867 29.0981C91.1272 29.0981 89.272 27.1383 89.272 24.5416C89.272 21.9331 91.0636 20.0403 93.531 20.0403C96.0064 20.0403 97.8722 21.9993 97.8722 24.5986C97.8722 27.2066 96.07 29.0981 93.5867 29.0981V29.0981ZM111.68 16.8741H107.904V13.0474C107.904 12.9103 107.792 12.7983 107.654 12.7983H104.222C104.085 12.7983 103.971 12.9103 103.971 13.0474V16.8741H102.322C102.184 16.8741 102.073 16.986 102.073 17.1234V20.0466C102.073 20.1837 102.184 20.2959 102.322 20.2959H103.971V27.8607C103.971 30.9161 105.505 32.4661 108.534 32.4661C109.764 32.4661 110.784 32.2139 111.747 31.6727C111.826 31.6307 111.874 31.5466 111.874 31.4573V28.6725C111.874 28.5885 111.829 28.507 111.754 28.4623C111.68 28.4151 111.588 28.4124 111.511 28.4518C110.851 28.7802 110.212 28.9326 109.496 28.9326C108.397 28.9326 107.904 28.4361 107.904 27.3274V20.2972H111.68C111.818 20.2972 111.929 20.1853 111.929 20.0479V17.125C111.935 16.9876 111.823 16.8756 111.683 16.8756L111.68 16.8741V16.8741ZM124.836 16.889V16.4191C124.836 15.0364 125.372 14.4198 126.57 14.4198C127.285 14.4198 127.86 14.5606 128.504 14.7734C128.584 14.7981 128.666 14.7858 128.73 14.7387C128.796 14.6917 128.833 14.6163 128.833 14.5364V11.6702C128.833 11.5607 128.764 11.4638 128.655 11.4314C127.977 11.231 127.108 11.0253 125.804 11.0253C122.637 11.0253 120.959 12.7944 120.959 16.1395V16.8594H119.31C119.173 16.8594 119.059 16.9713 119.059 17.1084V20.0466C119.059 20.1837 119.173 20.2959 119.31 20.2959H120.959V31.9617C120.959 32.1009 121.073 32.2113 121.211 32.2113H124.64C124.781 32.2113 124.892 32.1009 124.892 31.9617V20.2967H128.096L133.005 31.9617C132.448 33.1859 131.899 33.4303 131.152 33.4303C130.548 33.4303 129.909 33.2516 129.26 32.897C129.199 32.8654 129.125 32.8602 129.061 32.8786C128.995 32.9022 128.939 32.9495 128.913 33.0125L127.749 35.5425C127.693 35.6633 127.741 35.8026 127.858 35.8656C129.072 36.5171 130.166 36.7956 131.52 36.7956C134.054 36.7956 135.456 35.6239 136.689 32.4766L142.641 17.2295C142.673 17.1528 142.662 17.0661 142.615 16.9981C142.57 16.9306 142.493 16.8898 142.411 16.8898H138.838C138.729 16.8898 138.634 16.9574 138.599 17.0569L134.939 27.4168L130.932 17.0501C130.895 16.9537 130.802 16.8898 130.699 16.8898H124.836V16.889V16.889ZM117.209 16.8741H113.777C113.639 16.8741 113.525 16.986 113.525 17.1234V31.9617C113.525 32.1009 113.639 32.2113 113.777 32.2113H117.209C117.347 32.2113 117.461 32.1009 117.461 31.9617V17.1244C117.461 16.987 117.349 16.8751 117.209 16.8751V16.8741ZM115.513 10.1173C114.153 10.1173 113.05 11.2081 113.05 12.5556C113.05 13.9038 114.153 14.9959 115.513 14.9959C116.872 14.9959 117.972 13.9038 117.972 12.5556C117.972 11.2084 116.87 10.1173 115.513 10.1173ZM145.572 21.6452C144.215 21.6452 143.158 20.5641 143.158 19.2514C143.158 17.9386 144.229 16.8452 145.586 16.8452C146.943 16.8452 148 17.926 148 19.2377C148 20.5505 146.929 21.6452 145.572 21.6452ZM145.586 17.0832C144.348 17.0832 143.412 18.0579 143.412 19.2514C143.412 20.4443 144.343 21.4059 145.572 21.4059C146.81 21.4059 147.746 20.432 147.746 19.2377C147.746 18.0447 146.815 17.0832 145.586 17.0832V17.0832ZM146.121 19.4839L146.805 20.4317H146.227L145.612 19.5622H145.085V20.4317H144.602V17.9191H145.731C146.322 17.9191 146.709 18.2178 146.709 18.7207C146.712 19.1326 146.471 19.3843 146.124 19.4839H146.121ZM145.713 18.3503H145.085V19.145H145.713C146.026 19.145 146.214 18.9929 146.214 18.7472C146.214 18.4887 146.026 18.3503 145.713 18.3503V18.3503Z" fill="black"></path>
</svg>
