<svg width="92" height="39" viewBox="0 0 92 39" fill="none" xmlns="http://www.w3.org/2000/svg">
<path fill-rule="evenodd" clip-rule="evenodd" d="M49.7962 5.18657L43.3833 6.56624V1.35413L49.7962 0V5.18657ZM63.1329 8.07373C60.629 8.07373 59.0194 9.24901 58.1252 10.0666L57.793 8.48252H52.1721V38.2733L58.5595 36.9192L58.5851 29.6887C59.5048 30.353 60.859 31.2983 63.1073 31.2983C67.6807 31.2983 71.8453 27.6192 71.8453 19.5199C71.8198 12.1106 67.6041 8.07373 63.1329 8.07373ZM61.5999 25.6774C60.0925 25.6774 59.1982 25.1409 58.5851 24.4766L58.5595 14.9977C59.2238 14.2567 60.1436 13.7457 61.5999 13.7457C63.9249 13.7457 65.5346 16.3518 65.5346 19.6988C65.5346 23.1224 63.9505 25.6774 61.5999 25.6774ZM91.9782 19.7754C91.9782 13.2347 88.8101 8.07373 82.7548 8.07373C76.674 8.07373 72.9949 13.2347 72.9949 19.7243C72.9949 27.4148 77.3383 31.2983 83.5724 31.2983C86.6128 31.2983 88.9123 30.6085 90.6496 29.6376V24.5277C88.9123 25.3964 86.9194 25.9329 84.39 25.9329C81.9117 25.9329 79.7144 25.0642 79.4334 22.0494H91.9271C91.9271 21.9087 91.9363 21.5893 91.9469 21.2212L91.9469 21.2206V21.2203V21.2201C91.9613 20.7193 91.9782 20.1287 91.9782 19.7754ZM79.3567 17.3482C79.3567 14.4611 81.1196 13.2603 82.7293 13.2603C84.2878 13.2603 85.9485 14.4611 85.9485 17.3482H79.3567ZM49.7962 8.50781H43.3833V30.8637H49.7962V8.50781ZM36.1015 8.50824L36.5103 10.3989C38.0177 7.63955 41.007 8.20164 41.8246 8.50824V14.3846C41.0325 14.1036 38.4776 13.7459 36.9702 15.7132V30.8641H30.5828V8.50824H36.1015ZM23.7357 2.96387L17.5016 4.29245L17.4761 24.7577C17.4761 28.539 20.3121 31.3239 24.0934 31.3239C26.1885 31.3239 27.7215 30.9407 28.5646 30.4808V25.2942C27.747 25.6264 23.7102 26.8016 23.7102 23.0203V13.9502H28.5646V8.50813H23.7102L23.7357 2.96387ZM8.63576 13.618C7.28163 13.618 6.46405 14.0012 6.46405 14.9977C6.46405 16.0856 7.87113 16.5642 9.61676 17.1579C12.4626 18.1258 16.2082 19.3998 16.224 24.1189C16.224 28.6922 12.5704 31.3239 7.25608 31.3239C5.05882 31.3239 2.65716 30.8895 0.281045 29.8675V23.7867C2.42721 24.962 5.13547 25.8307 7.25608 25.8307C8.68686 25.8307 9.70884 25.4475 9.70884 24.2722C9.70884 23.0671 8.18354 22.5162 6.34209 21.8512C3.53767 20.8385 0 19.5609 0 15.3043C0 10.782 3.4492 8.07373 8.63576 8.07373C10.7564 8.07373 12.8514 8.40588 14.9721 9.24901V15.2532C13.0303 14.2056 10.5775 13.618 8.63576 13.618Z" fill="black"></path>
</svg>
