<svg width="252" height="34" viewBox="0 0 252 34" fill="none" xmlns="http://www.w3.org/2000/svg">
<path d="M18.8897 3.42205C18.8897 0.684411 16.289 0 14.2357 0V0.410646C15.4677 0.410646 16.4259 0.821293 16.4259 1.77947C16.4259 2.327 16.0152 3.14829 14.7833 3.14829C13.8251 3.14829 11.7719 2.60076 10.2662 2.05323C8.48669 1.36882 6.84411 0.821293 5.47529 0.821293C2.73764 0.821293 0.821293 2.87452 0.821293 5.20152C0.821293 7.25475 2.327 7.93916 2.87452 8.21293L3.01141 7.93916C2.73764 7.6654 2.327 7.39164 2.327 6.57034C2.327 6.02281 2.87452 5.06464 4.24335 5.06464C5.47528 5.06464 7.11787 5.61217 9.30798 6.29658C11.2243 6.84411 13.2776 7.25475 14.3726 7.39164V11.635L12.3194 13.4145V13.5513L14.3726 15.3308V21.2167C13.2776 21.9011 12.0456 22.038 10.9506 22.038C8.89734 22.038 7.11787 21.4905 5.61217 19.8479L11.2243 17.1103V7.6654L4.38023 10.6768C4.92776 8.89734 6.43346 7.6654 7.93916 6.84411L7.80228 6.43346C3.69582 7.52852 0 11.3612 0 16.0152C0 21.4905 4.51711 25.597 9.58175 25.597C15.057 25.597 18.616 21.2167 18.616 16.6996H18.3422C17.5209 18.4791 16.289 20.1217 14.7833 20.943V15.3308L16.9734 13.5513V13.4145L14.7833 11.635V7.39164C16.8365 7.39164 18.8897 6.02281 18.8897 3.42205ZM6.98099 18.4791L5.3384 19.3004C4.38023 18.0684 3.8327 16.4259 3.8327 14.0989C3.8327 13.1407 3.8327 12.0456 4.10646 11.2243L6.98099 9.9924V18.4791ZM21.4905 21.6274L19.711 22.9962L19.9848 23.27L20.8061 22.5856L23.8175 25.3232L27.924 22.5856L27.7871 22.3118L26.692 22.9962L25.3232 21.6274V12.3194L26.4182 11.4981L28.7452 13.4145V21.7643C28.7452 26.9658 27.6502 27.7871 25.3232 28.6084V29.019C29.1559 29.1559 32.7148 27.924 32.7148 21.2167V12.1825L33.9468 11.2243L33.673 10.9506L32.5779 11.7719L29.1559 8.89734L25.3232 11.7719V0.547529H25.0494L20.2586 3.8327V4.10646C20.8061 4.38023 21.6274 4.65399 21.6274 6.1597L21.4905 21.6274ZM46.5399 20.1217L43.1179 22.7224L39.6958 19.9848V18.3422L46.1293 13.962V13.8251L42.8441 8.89734L35.7262 12.73V21.7643L34.3574 22.8593L34.6312 23.1331L35.8631 22.1749L40.5171 25.597L46.6768 20.6692L46.5399 20.1217ZM39.6958 17.7947V11.0875L39.9696 10.9506L42.981 15.7414L39.6958 17.7947ZM72.6844 2.19011C72.6844 1.77947 72.5475 1.36882 72.4106 0.958175H72.1369C71.7262 2.05323 71.1787 2.60076 69.8099 2.60076C68.5779 2.60076 67.7567 1.91635 67.2091 1.36882L63.2395 5.88593L63.5133 6.1597L64.8821 4.92776C65.7034 5.61217 66.3878 6.1597 68.3042 6.29658V17.6578L60.2281 3.8327C59.5437 2.73764 58.5856 1.23194 56.6692 1.23194C54.4791 1.23194 52.5627 3.14829 52.8365 6.1597H53.2471C53.384 5.3384 53.7947 4.38023 54.7529 4.38023C55.4373 4.38023 56.1217 5.06464 56.5323 5.74905V10.2662C54.0684 10.2662 52.4259 11.3612 52.4259 13.4145C52.4259 14.5095 52.9734 16.1521 54.616 16.5627V16.289C54.3422 16.0152 54.2053 15.7414 54.2053 15.3308C54.2053 14.6464 54.7529 14.0989 55.711 14.0989H56.3954V19.8479C53.5209 19.8479 51.1939 21.4905 51.1939 24.2281C51.1939 26.8289 53.384 28.0608 55.8479 27.924V27.6502C54.3422 27.5133 53.6578 26.8289 53.6578 25.8707C53.6578 24.6388 54.4791 24.0913 55.5741 24.0913C56.6692 24.0913 57.6274 24.7757 58.3118 25.597L62.2814 21.2167L62.0076 20.943L61.0494 22.038C59.5437 20.6692 58.7224 20.2586 56.943 19.9848V6.29658L67.8935 25.4601H68.7148V6.29658C70.7681 6.1597 72.6844 4.51711 72.6844 2.19011ZM82.6768 20.1217L79.2548 22.7224L75.8327 19.9848V18.3422L82.2662 13.962V13.8251L78.981 8.89734L71.8631 12.73V21.7643L70.4943 22.8593L70.7681 23.1331L72 22.1749L76.654 25.597L82.8137 20.6692L82.6768 20.1217ZM75.8327 17.7947V11.0875L76.1065 10.9506L79.1179 15.7414L75.8327 17.7947ZM104.989 10.403L104.03 11.0875L101.43 8.89734L98.4183 11.635L99.6502 12.8669V23.1331L96.365 21.0799V12.5932L97.4601 11.9087L94.3118 8.89734L91.3004 11.635L92.5323 12.8669V22.7224L92.1217 22.9962L89.2471 20.943V12.73C89.2471 10.8137 88.289 10.2662 87.1939 9.58175C86.2357 8.89734 85.6882 8.48669 85.6882 7.52852C85.6882 6.70723 86.5095 6.29658 86.9202 6.02281V5.74905C85.8251 5.74905 82.9506 6.84411 82.9506 9.44487C82.9506 10.8137 83.635 11.3612 84.3194 12.0456C85.0038 12.73 85.6882 13.2776 85.6882 14.5095V22.4487L84.1825 23.5437L84.4563 23.8175L85.8251 22.7224L88.9734 25.4601L92.3954 23.1331L96.2281 25.4601L103.483 21.2167V12.0456L105.262 10.6768L104.989 10.403ZM130.449 2.87453L129.08 4.10646L126.068 1.36882L121.551 4.65399V1.64259H121.141L121.278 23.8175C120.867 23.8175 119.635 23.5437 118.677 23.27L118.403 4.79088C118.403 3.42205 117.445 1.5057 114.981 1.5057C112.517 1.5057 110.875 3.42205 110.875 5.3384H111.285C111.422 4.51711 111.833 3.8327 112.654 3.8327C113.475 3.8327 114.16 4.38023 114.16 6.1597V11.4981C111.696 11.635 110.19 13.0038 110.19 14.7833C110.19 15.8783 110.738 17.5209 112.38 17.5209V17.2472C111.833 16.9734 111.696 16.5627 111.696 16.289C111.696 15.4677 112.38 15.1939 113.475 15.1939H114.023V23.6806C111.97 24.365 111.148 25.8707 111.148 27.5133C111.148 29.8403 112.928 31.4829 115.665 31.4829C117.582 31.4829 119.224 31.2091 120.867 30.7985C122.236 30.5247 124.015 30.1141 124.836 30.1141C125.932 30.1141 126.342 30.6616 126.342 31.346C126.342 32.3042 125.932 32.7148 125.384 32.8517V33.1255C127.574 32.7148 128.943 31.346 128.943 29.2928C128.943 27.2395 126.89 26.0076 124.7 26.0076C123.605 26.0076 121.278 26.4183 119.635 26.692C117.719 27.1027 115.802 27.3764 115.255 27.3764C114.297 27.3764 113.202 26.9658 113.202 25.597C113.202 24.5019 114.16 23.5437 116.487 23.5437C117.719 23.5437 119.224 23.6806 120.73 24.0913C122.373 24.5019 123.878 24.9126 125.247 24.9126C127.3 24.9126 129.08 24.2281 129.08 21.3536V4.51711L130.722 3.14829L130.449 2.87453ZM124.836 11.2243C124.426 11.635 123.878 12.0456 123.194 12.0456C122.51 12.0456 121.825 11.635 121.551 11.2243V5.20152L122.92 4.24335L124.836 6.02281V11.2243ZM124.836 15.3308C124.563 15.057 123.878 14.6464 123.194 14.6464C122.51 14.6464 121.825 15.057 121.551 15.3308V11.7719C121.825 12.0456 122.51 12.4563 123.194 12.4563C123.878 12.4563 124.563 12.0456 124.836 11.7719V15.3308ZM124.836 21.7643C124.836 22.8593 124.152 23.9544 122.646 23.9544H121.551V15.8783C121.825 15.6046 122.51 15.1939 123.194 15.1939C123.878 15.1939 124.426 15.6046 124.836 15.8783V21.7643ZM143.589 12.0456L139.209 8.89734L132.502 12.73V21.6274L131.133 22.7224L131.27 22.9962L132.365 22.1749L136.745 25.4601L143.589 21.3536V12.0456ZM136.198 20.6692V10.8137L139.62 13.2776V22.9962L136.198 20.6692ZM156.593 9.1711H156.319C155.909 9.44487 155.498 9.71863 155.087 9.71863C154.54 9.71863 153.856 9.44487 153.582 9.03422H153.308L150.981 11.635L148.654 9.03422L144.548 11.7719L144.684 12.0456L145.779 11.3612L147.148 12.8669V21.4905L145.369 22.8593L145.643 23.1331L146.464 22.4487L149.749 25.1863L153.992 22.3118L153.856 22.038L152.624 22.7224L150.981 21.3536V11.7719C151.665 12.4563 152.487 13.1407 153.445 13.1407C155.361 13.2776 156.456 11.3612 156.593 9.1711ZM173.019 22.3118L168.365 25.4601L162.068 15.8783L166.586 8.89734H166.859C167.407 9.44487 168.228 9.9924 169.186 9.9924C170.144 9.9924 170.829 9.44487 171.24 8.89734H171.513C171.376 11.635 169.46 13.2776 168.091 13.2776C166.722 13.2776 166.038 12.5932 165.217 12.1825L164.806 12.8669L171.65 22.9962L173.019 22.1749V22.3118ZM157.962 21.6274L156.183 22.9962L156.456 23.27L157.278 22.5856L160.289 25.3232L164.395 22.5856L164.122 22.3118L163.027 22.9962L161.658 21.6274V0.547529H161.521L156.593 3.8327V4.10646C157.141 4.38023 157.962 4.51711 157.962 6.1597V21.6274ZM195.741 3.42205C195.741 0.684411 193.141 0 191.087 0V0.410646C192.319 0.410646 193.278 0.821293 193.278 1.77947C193.278 2.327 192.867 3.14829 191.635 3.14829C190.677 3.14829 188.624 2.60076 187.118 2.05323C185.338 1.5057 183.696 0.958175 182.327 0.958175C179.589 0.958175 177.673 3.01141 177.673 5.3384C177.673 7.39164 179.179 8.07605 179.726 8.34981L179.863 8.07605C179.452 7.80228 179.042 7.52852 179.042 6.70723C179.042 6.1597 179.589 5.20152 180.958 5.20152C182.19 5.20152 183.833 5.74905 186.023 6.43346C187.939 6.98099 189.992 7.39164 191.087 7.52852V11.7719L189.034 13.5513V13.6882L191.087 15.4677V21.3536C189.992 22.038 188.76 22.1749 187.665 22.1749C185.612 22.1749 183.833 21.6274 182.327 19.9848L187.939 17.2472V7.6654L181.095 10.6768C181.779 8.89734 183.285 7.6654 184.654 6.70723L184.517 6.43346C180.411 7.52852 176.715 11.2243 176.715 15.8783C176.715 21.3536 181.232 25.4601 186.297 25.4601C191.772 25.4601 195.331 21.0799 195.331 16.5627H195.057C194.236 18.3422 193.004 19.9848 191.498 20.8061V15.1939L193.688 13.4145V13.2776L191.635 11.4981V7.39164C193.688 7.39164 195.741 6.02281 195.741 3.42205ZM183.833 18.4791L182.19 19.3004C181.232 18.0684 180.684 16.4259 180.684 14.0989C180.684 13.1407 180.821 12.0456 181.095 11.2243L183.97 9.9924L183.833 18.4791ZM200.532 2.05323H200.395L197.658 4.38023V4.51711L199.985 7.11787H200.259L202.996 4.79088V4.65399L200.532 2.05323ZM204.639 22.3118L203.544 22.9962L202.175 21.6274V12.1825L203.544 11.2243L203.27 10.9506L202.312 11.7719L199.848 8.89734L195.878 11.635L196.152 12.0456L197.11 11.3612L198.342 12.8669V21.7643L196.563 23.1331L196.7 23.4068L197.658 22.7224L200.669 25.4601L204.776 22.7224L204.639 22.3118ZM227.498 22.1749L226.54 22.8593L225.034 21.4905V12.1825L226.403 11.0875L226.129 10.8137L225.034 11.7719L221.886 8.89734L217.779 11.7719L214.631 8.89734L210.798 11.7719L208.335 8.89734L204.365 11.635L204.502 12.0456L205.46 11.3612L206.829 12.8669V21.7643L205.734 22.8593L208.882 25.4601L211.894 22.7224L210.662 21.4905V12.1825L211.894 11.3612L213.947 13.2776V21.4905L212.852 22.5856L216 25.1863L219.011 22.4487L217.779 21.2167V12.1825L218.875 11.4981L221.065 13.4145V21.6274L220.106 22.5856L223.255 25.4601L227.498 22.5856V22.1749ZM239.407 20.1217L235.985 22.7224L232.563 19.9848V18.3422L238.996 13.962V13.8251L235.711 8.89734L228.593 12.73V22.038L233.384 25.4601L239.544 20.5323L239.407 20.1217ZM232.563 17.7947V11.0875L232.837 10.9506L235.848 15.7414L232.563 17.7947ZM251.863 16.5627L249.262 14.5095C251.042 13.0038 251.726 10.9506 251.726 9.58175V8.76046H251.452C251.179 9.44487 250.631 10.1293 249.536 10.1293C248.441 10.1293 247.757 9.58175 247.072 8.76046L240.913 12.1825V17.1103L243.24 18.8897C240.913 20.943 240.502 22.3118 240.502 23.4068C240.502 24.7757 241.186 25.7338 242.281 26.1445L242.418 25.8707C242.144 25.597 241.871 25.4601 241.871 24.7757C241.871 24.365 242.418 23.6806 243.513 23.6806C244.882 23.6806 245.703 24.6388 246.114 25.0494L252 21.4905V16.5627H251.863ZM250.357 12.4563C249.399 14.0989 247.346 15.7414 246.114 16.5627L244.608 15.3308V10.5399C245.156 11.9087 246.662 13.0038 248.167 13.0038C249.125 13.0038 249.673 12.8669 250.357 12.4563ZM248.03 23.4068C247.346 21.9011 245.703 20.8061 244.061 20.8061C243.65 20.8061 242.555 20.8061 241.46 21.4905C242.144 20.3954 243.924 18.4791 246.251 17.1103L247.894 18.4791L248.03 23.4068Z" fill="black"></path>
</svg>
